<?xml version="1.0" encoding="utf-8"?>
<!-- Generator: Adobe Illustrator 22.1.0, SVG Export Plug-In . SVG Version: 6.00 Build 0)  -->
<svg version="1.1" id="Layer_1" xmlns="http://www.w3.org/2000/svg" xmlns:xlink="http://www.w3.org/1999/xlink" x="0px" y="0px"
	 viewBox="0 0 174.2 169.9" style="enable-background:new 0 0 174.2 169.9;" xml:space="preserve">
<style type="text/css">
	.st0{fill:#4D1F1A;}
	.st1{fill:#6C3427;}
	.st2{fill:none;stroke:#6C3427;stroke-miterlimit:10;}
	.st3{opacity:0.96;fill:#6C3427;}
	.st4{fill:none;}
	.st5{fill:#F9C29D;}
	.st6{fill:#990000;}
	.st7{fill:#FFFFFF;}
	.st8{opacity:0.96;fill:none;stroke:#000000;stroke-width:0.75;stroke-miterlimit:10;}
	.st9{fill:#CEE1F4;}
	.st10{fill:#2FA4AD;}
	.st11{fill:none;stroke:#FBCD59;stroke-width:4;stroke-miterlimit:10;}
	.st12{fill:#F4BD98;}
	.st13{fill:#F0652A;}
	.st14{fill:#31C5F0;}
	.st15{fill:url(#path0_fill_6_);}
	.st16{fill:#F37021;}
	.st17{fill:url(#path0_fill_7_);}
	.st18{fill:#FF7F18;}
	.st19{fill:#FF2BC2;}
	.st20{fill:url(#path0_fill_8_);}
	.st21{fill:#FED7F0;}
	.st22{fill:#379AD6;}
</style>
<title>Meeee</title>
<path class="st0" d="M66,95.3c0,0-4.9-6.9,7.9,52.7c2.2,10.1,5.6,0.4,5.6,0.4l-0.3,18.4l7-15.8c0,0-2.6,10,1.2,13.3l5.3-12.6l-2,9.1
	c0,0,5.3-13.6,4.9-6.8c-0.4,6.9-0.5,13.6-0.5,13.6l5.5-12.3c0.3,3.3,1.6,6.5,3.8,9l1.3-14c0,0-2.3-21,10.5-60.9
	c0,0-10.8,13.8-12.4,14.2l-4.4,3.6c0,0-3.8,4-8.5,4.2s-6.6-0.4-11.3-4.2C79.6,107.3,68.6,99.4,66,95.3z"/>
<path class="st0" d="M73.2,20.1c0,0-7.9-14.5,10.6-16.3s22.7,5.4,22.7,5.4c2.1,3.3,2.3,7.6,0.5,11.1C107,20.3,90.9,11.9,73.2,20.1z"
	/>
<path class="st0" d="M60.3,46.6c0,0-5.4-14.4,11.5-26.1c8.2-2.9,16.8-4.1,25.5-3.6c12.4,1,20.3,11.1,21.8,18c0,0,1,8.8-2,14
	C117,48.9,85.7,31.3,60.3,46.6z"/>
<path class="st1" d="M78.8,4.7c-1,0.5-1.9,0.9-2.9,1.4S74.1,7,73.2,7.6c-1.8,1-3.5,2.2-5,3.6c-0.7,0.7-1.3,1.5-1.8,2.3
	c-0.4,0.9-0.5,1.8-0.3,2.8s0.6,1.9,1.3,2.7c0.3,0.4,0.6,0.8,1,1.2l1.1,1.2c-1.7-1.2-3.5-2.7-4.1-4.9c-0.3-1.1-0.2-2.3,0.2-3.3
	c0.4-1,1.1-1.9,1.9-2.7c1.6-1.5,3.4-2.7,5.4-3.6C74.8,6,76.8,5.2,78.8,4.7z"/>
<path class="st1" d="M81,4.2c-0.9-1-1.9-1.8-3-2.5c-1-0.6-2.3-0.8-3.5-0.6c-1.2,0.3-2.3,0.9-3.3,1.7c-0.4,0.5-1,0.9-1.4,1.3
	s-0.9,1-1.4,1.4c0.3-0.6,0.7-1.2,1-1.7s0.8-1.1,1.3-1.6c1-1,2.2-1.7,3.6-2.1c1.4-0.2,2.9,0.1,4.1,1C79.5,1.9,80.4,2.9,81,4.2z"/>
<path class="st1" d="M97.8,4.4c1.9-0.2,3.8-0.1,5.8,0.1c1.9,0.2,3.8,0.6,5.6,1.4c1,0.4,1.8,1.1,2.4,2c0.5,1,0.5,2.2,0,3.1
	c-0.4,0.9-0.9,1.7-1.4,2.5c-0.3,0.4-0.5,0.8-0.8,1.2c-0.1,0.1-0.2,0.2-0.3,0.3c-0.1,0.1-0.1,0.1-0.2,0.1s-0.1,0-0.2,0V15
	c0-0.2,0.1-0.5,0.1-0.7c0,0.2,0,0.5,0,0.7c0,0.1,0,0,0,0l0.1-0.1c0.1-0.1,0.1-0.2,0.2-0.3c0.2-0.4,0.4-0.8,0.6-1.3
	c0.4-0.9,0.8-1.7,1.1-2.6c0.4-0.7,0.3-1.6-0.1-2.3c-0.5-0.7-1.2-1.2-2-1.6c-1.7-0.7-3.5-1.3-5.4-1.6C101.5,4.9,99.7,4.6,97.8,4.4z"
	/>
<path class="st1" d="M88.3,3.5c-1.8,0.8-3.5,1.7-5.2,2.7c-1.6,1-3.2,2.1-4.6,3.4s-2.5,2.8-3.4,4.5c-0.8,1.8-1.1,3.7-0.9,5.6
	c-0.3-1-0.4-1.9-0.4-2.9s0.2-2,0.6-3c0.7-1.9,1.9-3.6,3.4-4.9s3.1-2.5,4.9-3.3C84.5,4.6,86.4,3.9,88.3,3.5z"/>
<path class="st1" d="M91.2,3.9c-1.3,1-2.5,2-3.8,3s-2.5,2-3.6,3.1s-2.2,2.2-3,3.6c-0.9,1.3-1.1,2.9-0.4,4.4
	c-0.5-0.6-0.8-1.5-0.8-2.3c0-0.9,0.2-1.7,0.6-2.5c0.8-1.5,1.8-2.8,3-3.9C85.5,7,88.2,5.2,91.2,3.9z"/>
<path class="st1" d="M95.2,3.9"/>
<path class="st1" d="M96.4,4.1C95.5,5,94.5,6,93.7,6.9s-1.7,1.9-2.5,3c-0.8,1-1.5,2.1-2,3.3s-0.7,2.5-0.5,3.7
	c-0.6-1.2-0.7-2.7-0.2-4c0.4-1.3,1.1-2.5,1.9-3.6C92,7.2,94,5.4,96.4,4.1z"/>
<path class="st1" d="M97.4,4.7c0.6,1,1,2.1,1.4,3.2c0.3,1.1,0.6,2.3,0.7,3.4c0.1,1.2,0,2.4-0.2,3.5c-0.3,1.2-0.9,2.2-1.8,3
	c0.5-1,0.9-2,1-3.2c0.1-1.1,0.1-2.2,0-3.3C98.3,9.2,97.8,7,97.4,4.7z"/>
<path class="st1" d="M100.2,6.1c0.8,0.4,1.5,1,2.2,1.6s1.2,1.3,1.7,2.1c0.5,0.8,0.8,1.7,0.9,2.7s-0.2,1.9-0.9,2.6
	c0.3-0.8,0.4-1.7,0.2-2.5c-0.2-0.8-0.5-1.6-1-2.3C102.3,8.9,101.2,7.6,100.2,6.1z"/>
<path class="st1" d="M60.9,44.9c-0.3-2.5-0.2-5.1,0.3-7.6c0.4-2.5,1.2-5,2.3-7.3s2.6-4.4,4.4-6.2c1.8-1.8,3.9-3.2,6.3-4.2
	c-0.5,0.4-1,0.7-1.6,1.1l-0.8,0.5c-0.3,0.2-0.5,0.4-0.7,0.6L69.7,23c-0.4,0.4-0.8,0.9-1.3,1.3c-1.6,1.8-3,3.9-4.1,6.1
	s-1.9,4.6-2.4,7c-0.3,1.2-0.5,2.4-0.7,3.7C61.1,42.4,60.9,43.6,60.9,44.9z"/>
<path class="st1" d="M65.5,39.4c0.6-2,1.2-3.9,2.1-5.8c0.8-1.9,1.7-3.7,2.6-5.5c1-1.8,2-3.6,3.2-5.2c1.1-1.7,2.6-3.2,4.4-4.3
	c-0.8,0.6-1.5,1.4-2.1,2.2c-0.6,0.8-1.2,1.7-1.7,2.5c-1.1,1.7-2,3.5-3,5.3s-1.9,3.6-2.8,5.4S66.4,37.6,65.5,39.4z"/>
<path class="st1" d="M77,35.3c-0.2-1.6-0.1-3.2,0.2-4.8c0.2-1.6,0.6-3.2,1.1-4.7c0.5-1.6,1.2-3.1,2-4.5s2-2.6,3.4-3.5
	c-1.1,1.1-2.1,2.4-2.7,3.8c-0.7,1.4-1.3,2.9-1.8,4.4s-0.9,3-1.3,4.6c-0.2,0.8-0.4,1.6-0.5,2.3C77.2,33.7,77.1,34.5,77,35.3z"/>
<path class="st1" d="M88.9,36.3c0.1-0.8,0.1-1.6,0-2.4l-0.2-2.4c-0.1-1.6-0.2-3.2-0.3-4.8c-0.2-3.2-0.2-6.4,0-9.7
	c0.5,3.2,0.9,6.4,1,9.6c0,1.6,0.1,3.2,0,4.8c0,0.8-0.1,1.6-0.1,2.4C89.3,34.8,89.1,35.6,88.9,36.3z"/>
<path class="st1" d="M101.7,34.9c-0.8-2.7-1.5-5.5-2.1-8.3l-1-4.1c-0.3-1.4-0.7-2.7-1.2-4.1c0.9,1.2,1.5,2.5,2,3.8s0.9,2.7,1.2,4.1
	C101.2,29.2,101.6,32.1,101.7,34.9z"/>
<path class="st2" d="M131.1,19.6"/>
<path class="st1" d="M102.4,20c1.3,1.2,2.5,2.6,3.5,4.1c1,1.4,2,3,2.9,4.5c0.9,1.6,1.6,3.2,2.2,4.9c0.7,1.7,0.9,3.5,0.6,5.3
	c-0.1-1.8-0.6-3.5-1.4-5.1c-0.7-1.6-1.5-3.2-2.3-4.7s-1.7-3.1-2.6-4.6S103.4,21.4,102.4,20z"/>
<path class="st1" d="M105.8,20c4.3,2.4,7.7,6.1,9.8,10.6c0.5,1.1,0.9,2.3,1.3,3.4c0.3,1.2,0.5,2.4,0.6,3.6c0,0.6,0.1,1.2,0.1,1.8
	l-0.1,1.8c-0.1,0.6-0.1,1.2-0.3,1.8c-0.1,0.6-0.3,1.2-0.4,1.8c0.3-2.4,0.3-4.8,0-7.2c-0.2-1.2-0.4-2.3-0.7-3.5
	c-0.4-1.1-0.8-2.2-1.3-3.3c-1-2.2-2.3-4.2-3.8-6c-0.8-0.9-1.6-1.8-2.4-2.6C107.7,21.5,106.8,20.7,105.8,20z"/>
<path class="st0" d="M59.7,37.5c0,0-26,64.7,0,104.4c3.4,8,2.1,17.3-3.3,24.1c0,0,9.1-1.8,12.2-14c0.9,5.4-0.2,10.9-3.1,15.5
	c0,0,10.4-4.6,13.1-13.6c0.7-2.5,0.8-5.1,0.3-7.7c-3-14-16.7-49.1-12.7-51.1c0,0-2.5-1.1-4.9-10s-4.6-12.8-1-38.5L59.7,37.5z"/>
<path class="st3" d="M34.5,48.9"/>
<path class="st1" d="M119.2,45.9c1.2,3.2,2.2,6.5,3.1,9.7s1.8,6.6,2.5,9.9c0.7,3.3,1.3,6.7,1.6,10.1c0.1,0.9,0.2,1.7,0.2,2.6
	l0.1,2.6l-0.1,2.6c-0.1,0.8-0.2,1.7-0.3,2.5l0.1-2.6l-0.1-2.5l-0.3-2.5c-0.1-0.8-0.2-1.7-0.4-2.5c-0.5-3.3-1.1-6.7-1.9-10
	s-1.5-6.6-2.2-9.9L119.2,45.9z"/>
<path class="st1" d="M121.5,112.7l-3.3,10.3c-1.1,3.4-2.2,6.9-3.2,10.3c-1,3.5-2,6.9-2.8,10.4c-0.4,1.7-0.7,3.5-0.9,5.3
	c-0.1,0.9-0.2,1.8-0.1,2.7c0,0.4,0.1,0.9,0.3,1.3c0.1,0.4,0.4,0.8,0.8,1c-0.8-0.5-1.2-1.4-1.3-2.3c-0.1-0.9-0.2-1.8-0.1-2.7
	c0.1-1.8,0.3-3.6,0.7-5.4c0.7-3.6,1.6-7.1,2.6-10.5c1.1-3.5,2.2-6.9,3.4-10.3S120.1,116,121.5,112.7z"/>
<path class="st1" d="M59.7,37.5c-1.9,4.6-3.7,9.3-5.4,14S51,61,49.6,65.7c-0.7,2.4-1.3,4.8-1.9,7.2c-0.6,2.4-1.1,4.8-1.5,7.3
	c-0.4,2.4-0.7,4.9-0.8,7.4s0.1,4.9,0.6,7.3l0,0l0,0c0.4,2.6,0.9,5.1,1.3,7.7s1,5.1,1.6,7.7c-0.8-2.5-1.4-5-2-7.6s-1.1-5.1-1.6-7.7
	l0,0c-0.6-2.5-0.9-5-0.8-7.5c0.1-2.5,0.3-5,0.8-7.5c0.8-4.9,2-9.8,3.5-14.6c1.4-4.8,3.1-9.5,5-14.2S57.5,42,59.7,37.5z"/>
<path class="st1" d="M58.3,44.3c-1.1,5-2.1,9.9-3,14.9s-1.7,10-2.3,15s-1.2,10.1-1.4,15.2c-0.3,5.1-0.1,10.1,0.5,15.1
	c0.3,2.5,0.8,4.9,1.6,7.3c0.7,2.4,1.9,4.6,3.6,6.4c3.5,3.8,5.9,8.6,6.8,13.7c0.9,5,1,10.2,0.3,15.3c-0.6,5.1-1.8,10-3.4,14.9
	c1.5-4.9,2.5-9.9,2.9-14.9c0.6-5,0.4-10.1-0.6-15.1c-0.9-5-3.2-9.5-6.7-13.2c-1.8-1.9-3.1-4.2-3.9-6.7c-0.8-2.4-1.4-5-1.7-7.5
	c-0.6-5.1-0.7-10.2-0.4-15.3c0.3-5.1,0.8-10.2,1.5-15.2C53.6,64.1,55.6,54.1,58.3,44.3z"/>
<path class="st1" d="M58.3,54.3c-0.6,3.6-1.1,7.2-1.5,10.9s-0.8,7.3-1.1,10.9C55,83.4,54.9,90.7,55.4,98c0.2,1.8,0.4,3.6,0.9,5.4
	c0.4,1.8,1.1,3.5,2,5.1c1.8,3.3,3,6.8,3.6,10.4c1.2,7.3,1.3,14.7,0.2,22c0.4-3.7,0.5-7.3,0.4-11s-0.5-7.3-1.2-10.9s-1.9-7-3.6-10.2
	c-0.9-1.6-1.6-3.4-2-5.2c-0.4-1.8-0.7-3.6-0.9-5.5c-0.3-3.7-0.4-7.3-0.3-11c0.1-3.7,0.3-7.3,0.7-11C55.8,68.7,56.9,61.4,58.3,54.3z"
	/>
<path class="st1" d="M58.5,79.4c0.1,1.4,0.2,2.9,0.1,4.3V88c0,2.9-0.1,5.8-0.1,8.6c0,5.8,0,11.5,0.4,17.3c0.2,5.8,0.9,11.5,2,17.1
	c0.5,2.8,1.5,5.5,2.8,8.1c0.7,1.3,1.6,2.3,2.8,3.1c0.6,0.4,1.3,0.6,2,0.8c0.7,0.1,1.4,0.1,2.2,0c-0.7,0.2-1.4,0.2-2.2,0.1
	c-0.7-0.1-1.4-0.3-2.1-0.7c-1.2-0.8-2.3-1.8-3-3.1c-1.4-2.5-2.5-5.3-3.1-8.1c-1.2-5.7-2-11.4-2.2-17.2c-0.3-5.8-0.3-11.6-0.2-17.3
	c0.1-2.9,0.2-5.8,0.3-8.7l0.2-4.3C58.5,82.3,58.5,80.8,58.5,79.4z"/>
<path class="st0" d="M117,48.9c0,0,3.9,26.5,0.5,36.7c0,0-30.8,84.3,5.5,81.9c0,0-11.8-5.4-8.9-18.6c0,0,0.4,6.4,2.2,9.3
	c0,0-1.6-4.3,0.8-7.5c0.2,1.8,0.7,3.6,1.3,5.4c0,0,2.8-27,11.9-42.1s4.4-50.7-11.2-79C119,34.9,119.3,45.6,117,48.9z"/>
<path class="st1" d="M119.3,38.8c3.5,9.1,6.3,18.4,8.6,27.9c1.1,4.7,2,9.6,2.5,14.4c0.3,2.4,0.4,4.9,0.4,7.3c0,2.5-0.4,4.9-1,7.3
	c-1.5,4.7-3.1,9.2-4.6,13.9s-2.9,9.3-4.2,14c-1.3,4.7-2.2,9.4-2.8,14.2c-0.7,4.8-0.7,9.7,0.1,14.5c-1-4.8-1.2-9.7-0.6-14.5
	s1.4-9.6,2.6-14.4c2.3-9.5,5.7-18.7,8.6-27.9c0.6-2.3,1-4.7,1-7.1s-0.1-4.8-0.3-7.2c-0.5-4.8-1.4-9.6-2.4-14.3
	c-1-4.8-2.2-9.5-3.6-14.1S120.9,43.4,119.3,38.8z"/>
<path class="st1" d="M121.4,70.9c1.8,8,2.6,16.2,2.3,24.5c-0.1,4.1-0.8,8.2-2.1,12.2c-0.2,0.5-0.3,1-0.5,1.5l-0.7,1.4
	c-0.2,0.5-0.4,1-0.7,1.4l-0.8,1.3c-1,1.8-1.9,3.6-2.8,5.4c-3.6,7.3-6.1,15.1-7.4,23.2c-0.6,4-0.4,8.1,0.5,12.1
	c0.5,2,1.4,3.8,2.5,5.5c1.2,1.7,2.6,3.2,4.3,4.4c-3.5-2.3-6.1-5.7-7.2-9.7s-1.4-8.2-0.8-12.3c0.2-2.1,0.5-4.1,1-6.1s1-4,1.6-6
	c1.3-3.9,2.8-7.8,4.6-11.5c0.9-1.9,1.8-3.7,2.8-5.5l0.8-1.3c0.3-0.4,0.4-0.9,0.7-1.4l0.7-1.4c0.2-0.5,0.3-1,0.5-1.4
	c1.3-3.9,2-7.9,2.2-11.9c0.3-4.1,0.2-8.2-0.1-12.2C122.5,79,122,74.9,121.4,70.9z"/>
<path class="st1" d="M119.2,87.8c0,3.3-0.3,6.7-0.9,9.9c-0.5,3.3-1.2,6.6-2,9.8c-0.8,3.2-1.7,6.4-2.8,9.6s-2.3,6.3-3.6,9.3l0,0l0,0
	c-1,2-1.9,4.1-2.5,6.2c-0.3,1.1-0.6,2.2-0.7,3.3s-0.1,2.3,0.1,3.4c-0.5-2.2-0.5-4.6,0.1-6.8c0.3-1.1,0.6-2.2,1-3.3s0.8-2.1,1.3-3.2
	l0,0c0.6-1.6,1.2-3.1,1.8-4.6s1.2-3.1,1.6-4.7c1.1-3.1,2-6.3,2.9-9.5c0.4-1.6,0.8-3.2,1.2-4.8c0.4-1.6,0.7-3.2,1-4.9
	C118.3,94.3,118.9,91.1,119.2,87.8z"/>
<path class="st1" d="M133.4,83.4c-0.1,5.2-0.6,10.5-1.5,15.6c-0.8,5.2-2,10.3-3.6,15.4c-0.7,2.5-1.6,5-2.6,7.4
	c-0.5,1.2-1,2.4-1.5,3.6l-0.8,1.8c-0.3,0.6-0.5,1.2-0.7,1.8c-1.6,5-2.6,10.1-3.9,15.2l0,0c-0.1,0.8-0.2,1.6-0.2,2.5
	c-0.1,0.8,0,1.7,0.1,2.5c-0.2-0.8-0.3-1.6-0.3-2.5c0-0.8,0-1.7,0.1-2.5l0,0c0.4-2.6,0.9-5.1,1.5-7.7c0.6-2.6,1.1-5.1,1.9-7.7
	c0.2-0.6,0.4-1.3,0.7-1.9l0.8-1.8c0.5-1.2,1-2.4,1.5-3.6c1-2.4,1.8-4.9,2.6-7.4c1.5-5,2.8-10,3.8-15.2
	C132.2,93.8,132.9,88.6,133.4,83.4z"/>
<path class="st4" d="M95,93"/>
<path class="st5" d="M105.3,37.3c1-0.1,2,0.1,2.8,0.6c3.3,1.4,9.1,7,10.7,17.8c1.8,11.8-0.3,26-1.1,30.4c-0.2,0.9-0.5,1.8-1.1,2.6
	c-4.8,7-10.6,13.1-17.3,18.3c0,0-8.8,9.5-19.8,0c0,0-15.4-9.8-17.5-19s-6-10.9-1.6-40.9c0,0,5-11.4,17.6-10.5
	C90.5,37.5,82.9,37.9,105.3,37.3z"/>
<path class="st6" d="M80.9,92.8l4.7-3c0.8-0.6,1.9-0.6,2.8-0.2c0.7,0.6,1.7,0.6,2.4,0c0.7-0.5,1.6-0.5,2.4,0l5.6,3.6"/>
<path d="M80.9,92.8c1.5-1.1,3.1-2.1,4.7-3.1l0,0c0.4-0.3,0.9-0.5,1.4-0.5s1,0.1,1.5,0.3l0,0l0,0c0.3,0.2,0.7,0.4,1.1,0.4
	s0.8-0.1,1.1-0.4c0.4-0.2,0.8-0.4,1.3-0.4s0.9,0.1,1.2,0.4l0,0c1.9,1.2,3.7,2.4,5.6,3.7c-1.9-1.2-3.8-2.3-5.6-3.5l0,0
	c-0.3-0.3-0.7-0.4-1.1-0.4s-0.8,0.2-1.1,0.4c-0.4,0.3-0.8,0.4-1.2,0.4c-0.5,0-0.9-0.1-1.3-0.4l0,0c-0.4-0.2-0.9-0.3-1.4-0.3
	s-0.9,0.2-1.3,0.4l0,0C84,90.9,82.5,91.9,80.9,92.8z"/>
<path class="st6" d="M98.8,93.2l-5.2,2.9c-2.4,1.3-5.3,1.3-7.7,0c-1.8-0.8-3.5-1.9-5-3.3"/>
<path d="M98.8,93.2c-1,0.6-2,1.2-3,1.8s-2,1.2-3.1,1.7s-2.3,0.6-3.5,0.5s-2.3-0.4-3.4-1l0,0c-1.8-0.9-3.5-2-5-3.4
	c0.8,0.6,1.6,1.2,2.4,1.8c0.8,0.5,1.7,1,2.6,1.4l0,0c1,0.5,2.2,0.8,3.3,0.9c1.1,0.1,2.3-0.1,3.4-0.5c1-0.4,2-1.1,3.1-1.6
	S97.7,93.7,98.8,93.2z"/>
<path class="st7" d="M95.7,93L95.7,93c-2.9-2.4-11.7-0.5-12.3-0.2c0,0,7.3,1.4,11.9,0l0,0"/>
<path d="M86.4,76.8c0.4-0.9,0.8-1.9,1-2.9s0.4-2,0.4-3.1c0.1-1,0.1-2.1,0.1-3.1s-0.1-2.1-0.2-3.1c0.1,1,0.2,2.1,0.2,3.1
	s0,2.1-0.1,3.1s-0.2,2.1-0.5,3.1C87.2,74.9,86.8,75.8,86.4,76.8z"/>
<path d="M90.6,83.1c0.4-0.6,1-1,1.6-1.2s1.3-0.3,2-0.2c-0.7-0.1-1.4,0-2,0.2C91.6,82.2,91.1,82.6,90.6,83.1z"/>
<path d="M84.5,80c-0.1,0.3-0.2,0.7-0.2,1c0,0.2,0.1,0.3,0.2,0.5c0.1,0.1,0.3,0.2,0.4,0.3c-0.2-0.1-0.3-0.1-0.4-0.3
	c-0.1-0.1-0.2-0.3-0.2-0.5C84.3,80.6,84.4,80.3,84.5,80z"/>
<path d="M89,83.3c-1-1-2.3-1.5-3.7-1.6C86.7,81.7,88.1,82.3,89,83.3z"/>
<path class="st8" d="M67.2,23.8c-72-10-67,5.7-67,5.7c-1.5,9.9,35.9,23.7,83.5,30.8s87.4,5,88.9-4.9c0,0,6.6-17.4-55.2-25.2"/>
<path class="st9" d="M72.1,20.3c2.8-1.2,5.7-2,8.7-2.5c3-0.6,6-0.9,9-0.9c0.8,0,1.5,0,2.3,0s1.5,0,2.3,0.1c1.5,0.2,3,0.3,4.5,0.5
	c0.7,0.1,1.5,0.2,2.2,0.4l2.2,0.5c0.7,0.2,1.5,0.4,2.2,0.7c0.7,0.2,1.4,1,2.1,1.2c-2.9-0.7-5.9-1.7-8.8-2c-3-0.3-5.9-0.5-8.9-0.4
	c-3,0-6,0.3-8.9,0.7C78,18.9,75,19.5,72.1,20.3z"/>
<path class="st8" d="M114.2,25.8c46.1-5.6,43.2,5.1,43.2,5.1c1.8,8.3-29.1,21.8-69,30.4S14.9,70,13.2,61.8c0,0-4.4-13.3,46.6-24.2"
	/>
<path class="st10" d="M74.9,139.5"/>
<path class="st11" d="M43.1,147.6"/>
<path class="st12" d="M76.4,120.8c1.4-5.1,1.6-10.4,0.4-15.6l2.6,1.8c0,0,4.2,3.8,8.8,4.1c0,0,4.8,1,10.1-3.5l8.7-7.7
	c0,0-3.3,12.9-1.4,18.8c0,0,0.1,8.2,9.6,6.9s19.4,1.5,19.4,1.5c8.1,3.7,8.1,5.6,8.1,5.6c8.2,7.2,0,32,0,32l0,0
	c-70.8,9.8-121.3-2.3-121.3-2.3l-1-10.9c0,0-1.1-17.5,4.1-21.7s39.8-4.6,46-6.7C76.6,121.2,76.4,120.8,76.4,120.8"/>
<path class="st9" d="M39,126.5l0.8,40.1c0,0,45.5,6.6,85.3,1.3c0,0,3.2-30.3,2.4-41.7c0,0-5.4-1.4-7.8-0.7s-15.3,22.9-38.2,29.2
	c0,0-11.8-2.6-32.1-29L39,126.5z"/>
<path class="st1" d="M66.2,95.5c0,4,0,8-0.1,12.1c0,4-0.2,8-0.3,12.1s-0.3,8-0.4,12.1l-0.3,6l-0.3,6l0,0l0,0
	c-0.2,0.9-0.4,1.7-0.8,2.6c-0.3,0.8-0.8,1.6-1.3,2.4c-0.5,0.7-1.1,1.4-1.8,2s-1.4,1.1-2.2,1.5c0.7-0.4,1.4-1,2-1.6s1.1-1.3,1.6-2
	c0.4-0.7,0.8-1.5,1.1-2.3s0.5-1.6,0.6-2.5l0,0l0.1-6l0.2-6c0.1-4,0.2-8.1,0.4-12.1s0.3-8,0.6-12.1S65.9,99.6,66.2,95.5z"/>
<g>
	<g>
		<g>
			
				<ellipse transform="matrix(0.9989 -4.620651e-02 4.620651e-02 0.9989 -3.103 1.4646)" class="st13" cx="30.1" cy="67.9" rx="8.9" ry="9"/>
		</g>
	</g>
	<path class="st7" d="M25.7,63.5l1.2,8.7l3.5,0.8l3.4-1.2l0.4-8.8L25.7,63.5z M32.6,66.1l-4,0.2l0.1,1.1l3.8-0.2l-0.1,3.3l-2.1,0.7
		l0,0l0,0l-2.2-0.5L27.9,69l1,0l0.1,0.8l1.2,0.3l1.2-0.4l0.1-1.4l-3.6,0.2l-0.4-3.2l5.3-0.2L32.6,66.1z"/>
</g>
<g id="Page-1">
	<g id="Social_icons" transform="translate(-522.000000, -654.000000)">
		<g id="Adobe_Photoshop" transform="translate(522.000000, 654.000000)">
			<path id="path0_fill" class="st14" d="M140.2,62.2c0.1-4.6,3.9-8.3,8.5-8.2s8.3,3.9,8.2,8.5s-3.9,8.3-8.5,8.2
				S140.1,66.8,140.2,62.2z"/>
			
				<radialGradient id="path0_fill_6_" cx="-34.6297" cy="156.1878" r="0.1811" gradientTransform="matrix(53.9882 1.1287 1.1287 -53.9882 1840.3485 8531.2139)" gradientUnits="userSpaceOnUse">
				<stop  offset="0" style="stop-color:#0E0E17;stop-opacity:0.85"/>
				<stop  offset="0.767" style="stop-color:#0E0E17"/>
			</radialGradient>
			<path id="path0_fill_1_" class="st15" d="M141,62.2c0.1-4.1,3.5-7.4,7.7-7.3c4.1,0.1,7.4,3.5,7.3,7.7c-0.1,4.1-3.5,7.4-7.7,7.3
				C144.2,69.8,140.9,66.3,141,62.2z"/>
			<path id="Shape" class="st14" d="M144.4,58.8c0,0,0.1-0.1,0.1-0.1c0.4,0,1,0,1.7,0c1.8,0,2.5,1.1,2.5,2.3c0,1.7-1.3,2.4-2.8,2.3
				c-0.3,0-0.3,0-0.5,0l-0.1,2.5c0,0.1,0,0.1-0.1,0.1l-1,0c-0.1,0-0.1,0-0.1-0.1L144.4,58.8z M145.5,62.3c0.2,0,0.3,0,0.5,0
				c0.8,0,1.5-0.2,1.5-1.3c0-0.8-0.5-1.3-1.4-1.3c-0.3,0-0.5,0-0.6,0L145.5,62.3L145.5,62.3z M151.2,61.6c-0.5,0-0.7,0.2-0.7,0.5
				c0,0.2,0.1,0.4,0.8,0.8c1,0.5,1.3,1,1.3,1.7c0,1.1-0.8,1.6-1.9,1.6c-0.6,0-1.1-0.1-1.3-0.3c0,0-0.1-0.1-0.1-0.1l0-1
				c0-0.1,0-0.1,0.1-0.1c0.4,0.3,0.9,0.4,1.3,0.4c0.5,0,0.7-0.2,0.8-0.5c0-0.2-0.1-0.4-0.8-0.8c-0.9-0.5-1.3-0.9-1.3-1.7
				c0-0.8,0.7-1.5,1.9-1.5c0.6,0,1,0.1,1.2,0.2c0.1,0,0.1,0.1,0.1,0.1l0,0.9c0,0.1,0,0.1-0.1,0.1C152.1,61.8,151.6,61.6,151.2,61.6
				L151.2,61.6z"/>
		</g>
	</g>
</g>
<g id="Page-1_1_">
	<g id="Social_icons_1_" transform="translate(-422.000000, -654.000000)">
		<g id="Adobe_Illustrator" transform="translate(422.000000, 654.000000)">
			<path id="path0_fill_3_" class="st16" d="M136.6,22.8c0.8-4.5,5-7.6,9.6-6.8c4.5,0.8,7.6,5,6.8,9.6s-5,7.6-9.6,6.8
				C138.9,31.6,135.8,27.3,136.6,22.8z"/>
			
				<radialGradient id="path0_fill_7_" cx="-34.6987" cy="156.8895" r="0.181" gradientTransform="matrix(53.2622 8.896 8.896 -53.2622 596.1162 8686.3711)" gradientUnits="userSpaceOnUse">
				<stop  offset="0" style="stop-color:#1C0A00;stop-opacity:0.85"/>
				<stop  offset="0.767" style="stop-color:#1C0A00"/>
			</radialGradient>
			<path id="path0_fill_2_" class="st17" d="M137.4,22.9c0.7-4.1,4.5-6.8,8.6-6.2c4.1,0.7,6.8,4.5,6.2,8.6c-0.7,4.1-4.5,6.8-8.6,6.2
				C139.4,30.8,136.7,27,137.4,22.9z"/>
			<path id="Shape_1_" class="st18" d="M141.8,25.2l-0.8,1.8c0,0.1,0,0.1-0.1,0l-0.9-0.2c-0.1,0-0.1,0,0-0.1l2.9-6.1
				c0.1-0.1,0.1-0.2,0.2-0.5c0,0,0-0.1,0.1-0.1l1.4,0.2c0,0,0.1,0,0.1,0.1l0.9,7.3c0,0.1,0,0.1-0.1,0.1l-1.1-0.2
				c-0.1,0-0.1,0-0.1-0.1l-0.2-2L141.8,25.2L141.8,25.2z M143.7,24.5c-0.1-0.7-0.2-2.4-0.3-3.2l0,0c-0.3,0.7-0.8,1.9-1.3,2.9
				L143.7,24.5z M147.2,21.4c0.1-0.4,0.4-0.6,0.8-0.5c0.4,0.1,0.6,0.4,0.5,0.8c-0.1,0.4-0.4,0.6-0.8,0.5
				C147.4,22.1,147.2,21.8,147.2,21.4L147.2,21.4z M147.1,22.9C147.1,22.8,147.1,22.8,147.1,22.9l1.1,0.1c0.1,0,0.1,0,0.1,0.1
				l-0.8,5.1c0,0.1,0,0.1-0.1,0.1l-1-0.2c-0.1,0-0.1,0-0.1-0.1L147.1,22.9z"/>
		</g>
	</g>
</g>
<g id="Page-1_2_">
	<g id="Social_icons_2_" transform="translate(-521.000000, -754.000000)">
		<g id="Adobe_XD" transform="translate(521.000000, 754.000000)">
			<path id="path0_fill_5_" class="st19" d="M12.6,20.6c0.2-4.4,3.9-7.7,8.2-7.5s7.7,3.9,7.5,8.2c-0.2,4.4-3.9,7.7-8.2,7.5
				S12.4,25,12.6,20.6z"/>
			
				<radialGradient id="path0_fill_8_" cx="-36.9031" cy="157.0545" r="0.1715" gradientTransform="matrix(53.9505 2.3127 2.3127 -53.9505 1646.8279 8577.0205)" gradientUnits="userSpaceOnUse">
				<stop  offset="0" style="stop-color:#0E0E17;stop-opacity:0.85"/>
				<stop  offset="0.767" style="stop-color:#0E0E17"/>
			</radialGradient>
			<path id="path0_fill_4_" class="st20" d="M13.3,20.6c0.2-3.9,3.5-7,7.4-6.8s7,3.5,6.8,7.4s-3.5,7-7.4,6.8
				C16.2,27.9,13.2,24.6,13.3,20.6z"/>
			<path id="Shape_2_" class="st21" d="M23.4,20.5c-0.1,0-0.2-0.1-0.3-0.1c-0.7,0-1.1,0.5-1.2,1.3c0,1,0.4,1.4,1,1.4
				c0.1,0,0.3,0,0.4,0L23.4,20.5L23.4,20.5z M21,21.7c0.1-1.2,0.9-2.2,2.2-2.1c0.1,0,0.2,0,0.3,0l0.1-1.4c0,0,0-0.1,0.1-0.1l0.9,0
				c0,0,0.1,0,0.1,0l-0.2,4.9c0,0.1,0,0.3,0,0.5c0,0,0,0,0,0.1c-0.5,0.2-0.9,0.3-1.4,0.3C21.7,23.9,20.9,23.2,21,21.7L21,21.7z
				 M19.2,20.8l1.4,3c0,0,0,0.1,0,0.1l-0.9,0c-0.1,0-0.1,0-0.1-0.1c-0.3-0.7-0.6-1.5-1-2.2l0,0c-0.4,0.7-0.7,1.5-1.1,2.2
				c0,0-0.1,0.1-0.1,0.1l-0.9,0c-0.1,0-0.1,0,0-0.1l1.6-2.8L16.7,18c0,0,0-0.1,0-0.1l0.9,0c0.1,0,0.1,0,0.1,0.1
				c0.3,0.7,0.6,1.4,0.9,2.2l0,0c0.3-0.7,0.7-1.4,1.1-2.1c0,0,0-0.1,0.1-0.1l0.9,0c0,0,0.1,0,0,0.1L19.2,20.8L19.2,20.8z"/>
		</g>
	</g>
</g>
<g id="g2990">
	<path id="path2989" class="st22" d="M50.3,37.9c1.1,3.7-1,7.7-4.7,8.8s-7.7-1-8.8-4.7c-1.1-3.7,1-7.7,4.7-8.8
		C45.2,32,49.1,34.1,50.3,37.9z"/>
	<g id="g3015">
		<polygon id="polygon3962" class="st7" points="46.9,42.6 45.7,36.6 39.8,38.3 42.2,44.1 44.7,44 		"/>
		<polygon id="polygon3968" class="st7" points="46.4,42.4 45.3,37.2 42.9,37.9 44.6,43.5 44.6,43.5 		"/>
		<path id="path4016" class="st7" d="M40.9,37.5l0.9-0.3l-0.1-0.4L41.1,37L41,36.6l0.5-0.2l-0.1-0.4l-0.9,0.3L40.9,37.5z M41.9,36.4
			c0.2,0.1,0.2,0.1,0.5,0.2c-0.1,0-0.4,0.1-0.4,0.1l0.1,0.4l0.9-0.3l-0.1-0.4l-0.5-0.2l0.4-0.1l-0.1-0.4L41.8,36
			C41.8,36,41.9,36.2,41.9,36.4z M44,35.3l-0.9,0.3c0,0,0.1,0.2,0.1,0.4c0.2,0.1,0.2,0.1,0.5,0.2c-0.1,0-0.4,0.1-0.4,0.1l0.1,0.4
			l0.9-0.3l-0.1-0.4l-0.5-0.2l0.4-0.1L44,35.3z"/>
		<path id="path4169" class="st22" d="M41.3,39.2l0.3,0.7l1.8-0.6l-1.5,1.3l0.3,0.7l2.5-0.8l0.2,1L44.2,42l-0.9,0L43,41.5l-0.7,0.2
			l0.4,1.1l1.6,0l1.4-0.9l-0.5-2.3l-1.7,0.5l1.5-1.3l-0.2-0.7L41.3,39.2z"/>
	</g>
</g>
</svg>
